<svg width="173" height="173" viewBox="0 0 173 173" fill="none" xmlns="http://www.w3.org/2000/svg">
<rect width="173" height="173" rx="86.5" fill="url(#paint0_linear)"/>
<path d="M52.1983 55.3614C49.2924 56.3299 45.7945 59.3969 44.3415 62.1949C43.3729 64.0244 43.1038 65.6924 42.8347 72.0416C42.458 80.6507 41.8661 82.265 38.5835 83.1797C36.9691 83.6639 36.9153 83.7178 36.9153 86.9462C36.9153 90.2284 36.9691 90.2822 38.6373 90.7665C41.8661 91.7888 42.458 93.3492 42.8347 101.958C43.2114 110.298 43.8572 112.397 46.9784 115.356C48.539 116.863 54.0818 119.661 54.6737 119.284C54.889 119.123 55.3733 117.993 55.6962 116.702C56.3419 114.388 56.3419 114.334 54.5123 112.505C52.0907 110.083 51.4449 107.662 51.4449 100.775C51.4449 93.9949 50.7453 91.4122 48.2161 88.8832L46.2788 86.9462L48.2161 85.0629C50.6915 82.6416 51.4449 80.0051 51.4449 73.333C51.4449 66.1766 52.1445 63.4863 54.5123 61.3878C56.3958 59.7736 56.3958 59.7736 55.75 57.3523C55.3733 56.0609 54.889 54.8771 54.7275 54.7695C54.5661 54.6619 53.3822 54.931 52.1983 55.3614ZM119.035 57.1909C118.228 59.5046 118.228 60.0426 118.819 60.4193C119.196 60.6883 119.681 60.9035 119.896 60.9035C120.111 60.9035 120.811 61.7107 121.51 62.6254C122.586 64.1858 122.802 65.2081 123.071 71.934C123.447 80.5431 124.255 83.1797 127.107 85.5472L128.936 87.0538L127.322 88.2376C124.255 90.5513 123.394 93.1878 123.125 101.259C122.856 109.276 121.994 112.074 119.465 113.204C118.712 113.527 118.228 114.119 118.389 114.495C118.497 114.818 118.927 116.11 119.304 117.347C119.842 119.23 120.111 119.499 121.08 119.23C125.277 117.939 128.614 115.195 130.389 111.59C131.735 108.792 131.896 107.877 132.058 101.797C132.165 98.0843 132.488 94.3716 132.811 93.5645C133.403 92.0579 135.663 90.4974 137.278 90.4974C137.923 90.4974 138.085 89.798 138.085 87C138.085 84.3096 137.923 83.5025 137.278 83.5025C135.771 83.5025 133.672 82.2112 132.919 80.7584C132.381 79.736 132.165 77.4223 132.165 73.3868C132.165 64.0782 130.12 59.3431 124.847 56.5452C120.272 54.07 120.165 54.07 119.035 57.1909ZM65.5441 98.1381C63.3377 98.7299 62.2076 100.452 62.2076 103.142C62.2076 107.07 66.4589 109.438 70.172 107.5C73.2932 105.886 73.939 102.443 71.625 99.7523C70.172 97.9766 68.1809 97.4924 65.5441 98.1381ZM84.9169 98.1381C82.7106 98.7299 81.5805 100.452 81.5805 103.142C81.5805 107.07 85.8318 109.438 89.5449 107.5C92.6661 105.886 93.3119 102.443 90.9979 99.7523C89.5449 97.9766 87.5538 97.4924 84.9169 98.1381ZM104.828 98.1381C102.622 98.7299 101.492 100.452 101.492 103.142C101.492 107.07 105.743 109.438 109.456 107.5C112.577 105.886 113.223 102.443 110.909 99.7523C109.456 97.9766 107.465 97.4924 104.828 98.1381Z" fill="white"/>
<defs>
<linearGradient id="paint0_linear" x1="0" y1="173" x2="173" y2="173" gradientUnits="userSpaceOnUse">
<stop stop-color="#83DB3B"/>
<stop offset="1" stop-color="#26A87C"/>
</linearGradient>
</defs>
</svg>
