<svg width="173" height="173" viewBox="0 0 173 173" fill="none" xmlns="http://www.w3.org/2000/svg">
<rect width="173" height="173" rx="86.5" fill="url(#paint0_linear)"/>
<g clip-path="url(#clip0)">
<path d="M79.0296 54.7145C74.64 57.9968 69.6649 61.717 66.9991 67.8719C62.3689 78.6101 76.4735 90.3232 77.0764 90.8166C77.2165 90.9312 77.3842 90.9884 77.5514 90.9884C77.7289 90.9884 77.9067 90.9239 78.0511 90.7953C78.331 90.5463 78.4105 90.1234 78.2424 89.779C78.1913 89.6744 73.1285 79.2193 73.3166 71.7188C73.3832 69.1064 76.822 66.1429 80.4624 63.0054C83.7967 60.1316 87.5763 56.8745 89.7877 53.0643C94.6424 44.6774 89.2466 36.4304 89.1915 36.348C88.9772 36.028 88.5816 35.9122 88.2434 36.0698C87.9055 36.2284 87.7183 36.6169 87.7955 37.0009C87.8064 37.0556 88.8557 42.5092 85.9359 48.1279C84.7332 50.4498 82.0902 52.426 79.0296 54.7145Z" fill="white"/>
<path d="M97.5237 58.4128C97.8334 58.1649 97.9243 57.7125 97.7371 57.3515C97.5495 56.9905 97.1413 56.8313 96.7787 56.9777C96.033 57.2791 78.5179 64.4571 78.5179 73.1299C78.5179 79.1084 80.92 82.2667 82.674 84.5731C83.362 85.4778 83.9559 86.259 84.1517 86.9259C84.7027 88.8479 83.3972 92.3217 82.8482 93.4982C82.6899 93.8363 82.7675 94.2463 83.0367 94.4932C83.1822 94.6268 83.3638 94.6947 83.5457 94.6947C83.7004 94.6947 83.8559 94.6457 83.9902 94.5463C84.2914 94.3238 91.3504 89.0177 90.0844 82.6249C89.6127 80.195 88.4896 78.4196 87.4986 76.8529C85.9634 74.4255 84.8545 72.6722 86.5367 69.4339C88.5076 65.6566 97.4334 58.4846 97.5237 58.4128Z" fill="white"/>
<path d="M51.9312 94.8319C51.6309 95.7877 51.7727 96.7357 52.3407 97.5745C54.2394 100.377 60.9649 101.92 71.2791 101.92C71.2797 101.92 71.2801 101.92 71.2804 101.92C72.678 101.92 74.1534 101.891 75.6647 101.833C92.1553 101.206 98.2717 95.7439 98.524 95.5117C98.799 95.2586 98.8725 94.8372 98.7016 94.4964C98.5305 94.1557 98.1618 93.9845 97.8095 94.0876C92.0016 95.7735 81.1569 96.372 73.6348 96.372C65.2178 96.372 60.9313 95.7273 59.8819 95.2513C60.4203 94.4652 63.7416 93.0614 67.8573 92.2008C68.2506 92.1187 68.521 91.7325 68.482 91.3083C68.443 90.8842 68.1079 90.5607 67.707 90.5607C65.2945 90.5607 53.1958 90.7666 51.9312 94.8319Z" fill="white"/>
<path d="M107.112 89.2063C103.711 89.2063 100.485 91.0188 100.349 91.0955C100.035 91.2746 99.8754 91.6581 99.9616 92.0266C100.048 92.3945 100.359 92.6531 100.716 92.6535C100.788 92.6535 107.972 92.716 108.622 97.0794C109.198 100.844 101.826 106.943 98.9361 108.975C98.624 109.195 98.5029 109.619 98.6478 109.986C98.7712 110.298 99.0571 110.493 99.3655 110.493C99.4193 110.493 99.4738 110.488 99.528 110.475C100.214 110.319 116.303 106.55 114.602 96.5909C113.564 90.4875 109.956 89.2063 107.112 89.2063Z" fill="white"/>
<path d="M96.0783 107.757C96.1343 107.438 96.0095 107.113 95.7597 106.927L91.902 104.054C91.7138 103.914 91.4762 103.87 91.2554 103.932C91.2151 103.943 87.1809 105.07 81.3239 105.762C78.9994 106.039 76.3958 106.185 73.794 106.185C67.9385 106.185 64.1099 105.454 63.5524 104.917C63.4785 104.767 63.5019 104.698 63.5151 104.66C63.6164 104.361 64.1593 104.005 64.5092 103.864C64.8957 103.712 65.1041 103.266 64.9839 102.847C64.864 102.427 64.4575 102.18 64.0563 102.283C60.1865 103.275 58.2943 104.664 58.432 106.409C58.6765 109.503 65.4179 111.092 71.117 111.511C71.9365 111.571 72.8229 111.601 73.7508 111.601C73.7514 111.601 73.7517 111.601 73.7523 111.601C83.2289 111.601 95.3779 108.44 95.4992 108.408C95.7959 108.331 96.0221 108.076 96.0783 107.757Z" fill="white"/>
<path d="M66.9947 114.397C67.2869 114.195 67.4164 113.811 67.3127 113.458C67.2093 113.104 66.8982 112.872 66.5486 112.876C66.03 112.891 61.4741 113.11 61.1551 116.194C61.0586 117.115 61.3069 117.957 61.8934 118.696C63.5292 120.757 67.9448 121.982 75.3903 122.441C76.2711 122.497 77.1658 122.525 78.05 122.525C87.5157 122.525 93.8907 119.374 94.1577 119.24C94.4166 119.11 94.5873 118.84 94.6025 118.536C94.6177 118.232 94.475 117.944 94.2308 117.785L89.3556 114.621C89.1863 114.511 88.9839 114.475 88.7909 114.517C88.7601 114.524 85.6646 115.206 80.9931 115.881C80.1092 116.008 79.0022 116.073 77.7033 116.073C73.0368 116.073 67.8463 115.263 66.8509 114.732C66.8364 114.633 66.8547 114.507 66.9947 114.397Z" fill="white"/>
<path d="M73.6384 132.039C95.3203 132.02 106.957 127.92 109.199 125.341C109.993 124.428 110.078 123.564 110.011 123C109.844 121.611 108.655 120.761 108.52 120.668C108.194 120.446 107.757 120.504 107.504 120.815C107.25 121.127 107.244 121.581 107.499 121.893C107.635 122.08 107.714 122.393 107.315 122.818C106.418 123.708 97.3794 126.409 82.3294 127.221C80.2678 127.335 78.1054 127.393 75.9028 127.393C62.4278 127.393 52.5661 125.431 51.2715 124.287C51.7705 123.525 55.2588 122.307 58.9684 121.618C59.3865 121.541 59.6689 121.122 59.6041 120.676C59.5393 120.231 59.1528 119.924 58.7304 119.982C58.6257 119.997 58.2706 120.02 57.8594 120.047C51.7385 120.444 44.6653 121.329 44.2962 124.682C44.1842 125.704 44.4697 126.631 45.1453 127.439C46.7983 129.413 51.5497 132.039 73.6376 132.039C73.638 132.039 73.638 132.039 73.6384 132.039Z" fill="white"/>
<path d="M113.458 126.067C113.151 125.917 112.789 125.993 112.56 126.255C112.529 126.292 109.269 129.916 99.4675 132.044C95.7152 132.843 88.6718 133.249 78.5329 133.249C68.3751 133.249 58.7094 132.824 58.6131 132.819C58.2093 132.798 57.864 133.11 57.8091 133.533C57.754 133.955 58.01 134.353 58.3999 134.452C58.5004 134.477 68.63 137 82.4801 137C89.1228 137 95.587 136.427 101.693 135.295C113.079 133.173 113.876 127.171 113.904 126.916C113.944 126.561 113.764 126.218 113.458 126.067Z" fill="white"/>
</g>
<defs>
<linearGradient id="paint0_linear" x1="-7.02538" y1="173" x2="173" y2="173" gradientUnits="userSpaceOnUse">
<stop stop-color="#1C40DE"/>
<stop offset="1" stop-color="#2AB5ED"/>
</linearGradient>
<clipPath id="clip0">
<rect x="32" y="36" width="95" height="101" fill="white"/>
</clipPath>
</defs>
</svg>
